<svg xmlns="http://www.w3.org/2000/svg" width="232" height="239" viewBox="0 0 232 239">
  <g fill="none" fill-rule="evenodd" transform="translate(-11.104 -23.613)">
    <path fill="#FFF" d="M82.8909489 213.982969C80.0879255 213.982969 77.9073193 216.611031 78.4181306 219.470719 80.8992141 233.417267 92.6865069 243.982969 106.84757 243.982969 120.991463 243.982969 132.761585 233.443993 135.268424 219.519717 135.783528 216.633303 133.581459 213.982969 130.75268 213.982969L82.8909489 213.982969zM191.038888 100.49159C191.038888 93.8397436 188.892929 87.3794426 187.408929 81.1890464 182.074317 83.3308712 175.580194 84.5236761 169.497092 84.5236761 143.793174 84.5236761 122.536929 63.5494645 122.536929 37.686494 122.536929 31.6789365 123.34599 25.0836832 125.396766 20.7303806L125.388113 20.7303806C125.163133 12.0237756 116.899459 2.21578492 106.680194 2.21578492 96.478235 2.21578492 86.8300717 10.4130536 86.6137452 20.6259014 50.5521125 29.1453145 22.3041941 61.6035382 22.3041941 100.482883L22.3041941 155.726293C9.32460231 155.726293.671541085 166.792388.671541085 180.453051L.671541085 193.295293C.671541085 195.828916 2.50166353 199.215785 5.01970435 199.215785L208.284439 199.215785C210.815459 199.215785 212.671541 195.815856 212.671541 193.269174L212.671541 180.453051C212.671541 166.783681 204.01848 155.739352 191.038888 155.739352L191.038888 100.49159z" transform="rotate(12 23.856 246.172)"/>
    <circle cx="207.104" cy="72.613" r="31" fill="#02A92B" stroke="#FFF" stroke-width="10"/>
  </g>
</svg>