<?xml version="1.0" encoding="utf-8"?>
<svg xmlns="http://www.w3.org/2000/svg">
  <symbol id="settings" viewBox="0 0 28 28">
    <path fill-rule="evenodd" clip-rule="evenodd" d="M24.0378 15.365L26.9654 17.682C27.229 17.899 27.3054 18.2771 27.1318 18.578L24.3568 23.429C24.1834 23.73 23.8226 23.849 23.5104 23.73L20.0555 22.323C19.341 22.883 18.557 23.345 17.7106 23.702L17.1903 27.412C17.1348 27.741 16.8504 28 16.5035 28H10.9535C10.6066 28 10.3221 27.741 10.2666 27.412L9.74633 23.702C8.89997 23.345 8.11604 22.8761 7.40145 22.323L3.94654 23.73C3.63435 23.856 3.27364 23.73 3.10018 23.429L0.325132 18.578C0.151671 18.27 0.228028 17.892 0.491634 17.682L3.41927 15.365C3.36379 14.917 3.32216 14.462 3.32216 14C3.32216 13.538 3.36379 13.083 3.41927 12.635L0.491634 10.318C0.228028 10.101 0.151671 9.72302 0.325132 9.42199L3.10025 4.57099C3.27364 4.26996 3.63442 4.15098 3.94661 4.26996L7.40152 5.67697C8.11604 5.11699 8.90003 4.65499 9.74639 4.29799L10.2667 0.588001C10.3222 0.259022 10.6067 0 10.9535 0H16.5036C16.8504 0 17.1348 0.259022 17.1973 0.588001L17.7177 4.29799C18.564 4.65499 19.3479 5.12394 20.0625 5.67697L23.5174 4.26996C23.8296 4.14396 24.1903 4.26996 24.3638 4.57099L27.1389 9.42199C27.3123 9.72997 27.236 10.108 26.9724 10.318L24.0378 12.635C24.0932 13.083 24.1349 13.538 24.1349 14C24.1349 14.462 24.0932 14.917 24.0378 15.365ZM8.8722 14C8.8722 16.709 11.0437 18.9 13.7285 18.9C16.4134 18.9 18.5848 16.7091 18.5848 14.0001C18.5848 11.2911 16.4134 9.10004 13.7285 9.10004C11.0437 9.10004 8.8722 11.291 8.8722 14Z" fill="#D7E0FF"/>
  </symbol>
  <symbol id="arrow-up" viewBox="0 0 14 7">
    <path fill-rule="evenodd" clip-rule="evenodd" fill="none" d="M1 6L7 2L13 6" stroke="#1E213F" stroke-opacity="0.25" stroke-width="2"/>
  </symbol>
  <symbol id="arrow-down" viewBox="0 0 14 7">
    <path fill-rule="evenodd" clip-rule="evenodd" fill="none" d="M1 1L7 5L13 1" stroke="#1E213F" stroke-opacity="0.25" stroke-width="2"/>
  </symbol>
  <symbol id="cross" viewBox="0 0 14 14">
    <path fill-rule="evenodd" clip-rule="evenodd" d="M13.364 2.0502L11.9497 0.635986L6.99999 5.58573L2.05025 0.635986L0.636032 2.0502L5.58578 6.99995L0.636032 11.9497L2.05025 13.3639L6.99999 8.41416L11.9497 13.3639L13.364 11.9497L8.41421 6.99995L13.364 2.0502Z" fill="#1E213F"/>
  </symbol>
  <symbol id="check" viewBox="0 0 24 24">
    <path fill-rule="evenodd" clip-rule="evenodd" fill="none" d="M20 6L9 17L4 12" stroke="#161932" stroke-width="2" stroke-linecap="round" stroke-linejoin="round"/>
  </symbol>
  <symbol id="bell" viewBox="0 0 232 239">
    <g fill="none" fill-rule="evenodd" transform="translate(-11.104 -23.613)">
      <path fill="#FFF" d="M82.8909489 213.982969C80.0879255 213.982969 77.9073193 216.611031 78.4181306 219.470719 80.8992141 233.417267 92.6865069 243.982969 106.84757 243.982969 120.991463 243.982969 132.761585 233.443993 135.268424 219.519717 135.783528 216.633303 133.581459 213.982969 130.75268 213.982969L82.8909489 213.982969zM191.038888 100.49159C191.038888 93.8397436 188.892929 87.3794426 187.408929 81.1890464 182.074317 83.3308712 175.580194 84.5236761 169.497092 84.5236761 143.793174 84.5236761 122.536929 63.5494645 122.536929 37.686494 122.536929 31.6789365 123.34599 25.0836832 125.396766 20.7303806L125.388113 20.7303806C125.163133 12.0237756 116.899459 2.21578492 106.680194 2.21578492 96.478235 2.21578492 86.8300717 10.4130536 86.6137452 20.6259014 50.5521125 29.1453145 22.3041941 61.6035382 22.3041941 100.482883L22.3041941 155.726293C9.32460231 155.726293.671541085 166.792388.671541085 180.453051L.671541085 193.295293C.671541085 195.828916 2.50166353 199.215785 5.01970435 199.215785L208.284439 199.215785C210.815459 199.215785 212.671541 195.815856 212.671541 193.269174L212.671541 180.453051C212.671541 166.783681 204.01848 155.739352 191.038888 155.739352L191.038888 100.49159z" transform="rotate(12 23.856 246.172)"/>
      <circle cx="207.104" cy="72.613" r="31" fill="#02A92B" stroke="#FFF" stroke-width="10"/>
    </g>
  </symbol>
</svg>